# Blender v2.93.0 OBJ File: 'SkyBox.blend'
# www.blender.org
mtllib skyBox.mtl
o SkyBox_Cube.003
v -256.000000 -256.000000 256.000000
v -256.000000 256.000000 256.000000
v -256.000000 -256.000000 -256.000000
v -256.000000 256.000000 -256.000000
v 256.000000 -256.000000 256.000000
v 256.000000 256.000000 256.000000
v 256.000000 -256.000000 -256.000000
v 256.000000 256.000000 -256.000000
vt 0.000000 0.000000
vt 1.000000 0.000000
vt 1.000000 1.000000
vt 0.000000 1.000000
vt 1.000000 0.000000
vt 0.000000 1.000000
vt 0.000000 0.000000
vt 0.000000 0.000000
vt 1.000000 0.000000
vt 1.000000 1.000000
vt 0.000000 1.000000
vt 0.000000 0.000000
vt 1.000000 0.000000
vt 1.000000 1.000000
vt 0.000000 1.000000
vt 1.000000 1.000000
vt 0.000000 0.000000
vt 1.000000 0.000000
vt 1.000000 1.000000
vt 0.000000 1.000000
vn -1.0000 0.0000 0.0000
vn 0.0000 -1.0000 0.0000
vn 0.0000 0.0000 1.0000
vn 1.0000 0.0000 0.0000
vn 0.0000 1.0000 0.0000
vn 0.0000 0.0000 -1.0000
usemtl +X
s off
f 7/1/1 5/2/1 6/3/1 8/4/1
usemtl +Y
f 8/5/2 6/3/2 2/6/2 4/7/2
usemtl +Z
f 3/8/3 7/9/3 8/10/3 4/11/3
usemtl -X
f 1/12/4 3/13/4 4/14/4 2/6/4
usemtl -Y
f 3/15/5 1/12/5 5/2/5 7/16/5
usemtl -Z
f 5/17/6 1/18/6 2/19/6 6/20/6
